# xmcd
#
# Track frame offsets:
#	150
#	13877
#	39527
#	58460
#	74582
#	89105
#	115075
#	131657
#	154852
#	170062
#	183127
#
# Disc length: 2629 seconds
#
# Revision: 2
# Processed by: cddbd v1.4PL0 Copyright (c) Steve Scherf et al.
# Submitted via: CDmax 1.9
#
DISCID=a40a430b
DTITLE=Sleepy LaBeef - I'll Never Lay My Guitar Down
DYEAR=1996
DGENRE=Blues
TTITLE0=Treat Me Like a Dog
TTITLE1=Roosevelt and Ira Lee
TTITLE2=Hillbilly Guitar Boogie
TTITLE3=Little Boy Sad
TTITLE4=Sweet Thang
TTITLE5=Sick and Tired
TTITLE6=Columbus Stockade Blues
TTITLE7=You Know I Love You
TTITLE8=I'm Coming Home
TTITLE9=Little Old Wine Drinker Me
TTITLE10=The Open Door
EXTD=
EXTT0=
EXTT1=
EXTT2=
EXTT3=
EXTT4=
EXTT5=
EXTT6=
EXTT7=
EXTT8=
EXTT9=
EXTT10=
PLAYORDER=
